<svg xmlns="http://www.w3.org/2000/svg" viewBox="0 0 512 512" fill="none">
  <defs>
    <linearGradient id="bg" x1="0%" y1="0%" x2="100%" y2="100%">
      <stop offset="0%" style="stop-color:#3b82f6"/>
      <stop offset="100%" style="stop-color:#1d4ed8"/>
    </linearGradient>
    <linearGradient id="pin" x1="0%" y1="0%" x2="0%" y2="100%">
      <stop offset="0%" style="stop-color:#ffffff"/>
      <stop offset="100%" style="stop-color:#e0e7ff"/>
    </linearGradient>
  </defs>
  <!-- Background circle -->
  <circle cx="256" cy="256" r="240" fill="url(#bg)"/>
  <!-- Location pin body -->
  <path d="M256 96c-66.3 0-120 53.7-120 120 0 90 120 200 120 200s120-110 120-200c0-66.3-53.7-120-120-120z" fill="url(#pin)" opacity="0.95"/>
  <!-- Inner circle -->
  <circle cx="256" cy="216" r="52" fill="#3b82f6"/>
  <!-- Pulse ring -->
  <circle cx="256" cy="216" r="32" fill="none" stroke="#ffffff" stroke-width="4" opacity="0.8"/>
  <!-- Center dot -->
  <circle cx="256" cy="216" r="16" fill="#ffffff"/>
  <!-- Signal waves -->
  <path d="M340 140c20 20 32 48 32 76" stroke="#ffffff" stroke-width="8" stroke-linecap="round" fill="none" opacity="0.6"/>
  <path d="M360 120c28 28 44 66 44 104" stroke="#ffffff" stroke-width="6" stroke-linecap="round" fill="none" opacity="0.4"/>
  <path d="M172 140c-20 20-32 48-32 76" stroke="#ffffff" stroke-width="8" stroke-linecap="round" fill="none" opacity="0.6"/>
  <path d="M152 120c-28 28-44 66-44 104" stroke="#ffffff" stroke-width="6" stroke-linecap="round" fill="none" opacity="0.4"/>
</svg>
